<svg id="calendar" width="20" height="20" viewBox="0 0 20 20" fill="none" xmlns="http://www.w3.org/2000/svg">
  <path
    d="M6.00031 12.6888V13.5311C6.00031 13.6469 6.05894 13.7453 6.17621 13.8264C6.2988 13.9074 6.42139 13.9479 6.54399 13.9479H9.39027C9.49155 13.9479 9.57949 13.8871 9.65411 13.7656C9.72874 13.644 9.76605 13.5051 9.76605 13.3488C9.76605 13.1924 9.72874 13.0564 9.65411 12.9406C9.57949 12.8248 9.49155 12.7669 9.39027 12.7669H7.29553V12.6888C7.29553 12.5498 7.38082 12.3993 7.55138 12.2372C7.72194 12.0693 7.92715 11.8985 8.16701 11.7249C8.41219 11.5512 8.65472 11.3601 8.89457 11.1517C9.13443 10.9433 9.33964 10.6857 9.5102 10.3789C9.68076 10.072 9.76605 9.74495 9.76605 9.3976C9.76605 8.84762 9.57949 8.41053 9.20638 8.08633C8.83327 7.76214 8.39887 7.60004 7.90317 7.60004C7.41813 7.60004 6.99438 7.75345 6.63193 8.06028C6.27481 8.36132 6.09625 8.76367 6.09625 9.26734C6.09625 9.73627 6.28281 9.97073 6.65592 9.97073C6.85313 9.97073 7.01037 9.92152 7.12763 9.8231C7.25023 9.72469 7.31152 9.6089 7.31152 9.47575C7.31152 9.24997 7.36749 9.08498 7.47942 8.98077C7.59136 8.87656 7.73527 8.82446 7.91116 8.82446C8.11371 8.82446 8.26562 8.88814 8.36689 9.01551C8.46816 9.13708 8.5188 9.27892 8.5188 9.44102C8.5188 9.64364 8.43085 9.85205 8.25496 10.0663C8.08439 10.2805 7.87385 10.486 7.62334 10.6828L6.88778 11.2733C6.64259 11.4701 6.43205 11.693 6.25616 11.942C6.08559 12.1909 6.00031 12.4398 6.00031 12.6888Z"
    fill="currentColor"/>
  <path
    d="M10.2026 11.968C10.1173 12.0375 10.0747 12.1677 10.0747 12.3588C10.0747 12.7814 10.2346 13.1606 10.5544 13.4964C10.8742 13.8322 11.3486 14 11.9775 14C12.5852 14 13.0729 13.8408 13.4406 13.5224C13.8138 13.204 14.0003 12.709 14.0003 12.0375V11.8725C14.0003 11.2415 13.7285 10.816 13.1848 10.596C13.3767 10.4976 13.5259 10.3181 13.6325 10.0576C13.7445 9.79705 13.8004 9.5018 13.8004 9.17182C13.8004 8.12396 13.2061 7.60004 12.0175 7.60004C11.3939 7.60004 10.9328 7.75924 10.6343 8.07765C10.3412 8.39027 10.1946 8.7492 10.1946 9.15445C10.1946 9.37444 10.2319 9.52206 10.3065 9.59732C10.3865 9.6668 10.565 9.70153 10.8422 9.70153C11.0607 9.70153 11.2127 9.66101 11.2979 9.57996C11.3832 9.49312 11.4259 9.36865 11.4259 9.20655C11.4259 9.04445 11.4738 8.93156 11.5698 8.86788C11.6657 8.79841 11.815 8.76368 12.0175 8.76368C12.4119 8.76368 12.6091 8.97209 12.6091 9.38891C12.6091 9.5568 12.5905 9.69574 12.5532 9.80574C12.5212 9.90994 12.4706 9.9852 12.4013 10.0315C12.3373 10.072 12.2734 10.101 12.2094 10.1184C12.1508 10.1299 12.0761 10.1357 11.9855 10.1357C11.7457 10.1357 11.6257 10.3094 11.6257 10.6568C11.6257 11.0041 11.7457 11.1778 11.9855 11.1778C12.236 11.1778 12.4253 11.227 12.5532 11.3254C12.6864 11.418 12.7531 11.6004 12.7531 11.8725V12.0375C12.7531 12.3212 12.6971 12.5238 12.5852 12.6454C12.4786 12.7611 12.2893 12.819 12.0175 12.819C11.5431 12.819 11.3059 12.6511 11.3059 12.3154C11.3059 12.1475 11.2606 12.0317 11.17 11.968C11.0847 11.8985 10.9168 11.8638 10.6663 11.8638C10.4425 11.8638 10.2879 11.8985 10.2026 11.968Z"
    fill="currentColor"/>
  <path fill-rule="evenodd" clip-rule="evenodd"
        d="M6 2C5.55817 2 5.2 2.35817 5.2 2.8V3.87313C3.33569 4.53207 2 6.31005 2 8.4V13.2C2 15.851 4.14903 18 6.8 18H13.2C15.851 18 18 15.851 18 13.2V8.4C18 6.31005 16.6643 4.53207 14.8 3.87313V2.8C14.8 2.35817 14.4418 2 14 2C13.5582 2 13.2 2.35817 13.2 2.8V3.6H6.8V2.8C6.8 2.35817 6.44183 2 6 2ZM6.8 5.2H13.2C14.9673 5.2 16.4 6.63269 16.4 8.4V13.2C16.4 14.9673 14.9673 16.4 13.2 16.4H6.8C5.03269 16.4 3.6 14.9673 3.6 13.2V8.4C3.6 6.63269 5.03269 5.2 6.8 5.2Z"
        fill="currentColor"/>
</svg>
