<svg id="file-outline" width="20" height="20" viewBox="0 0 20 20" fill="none" xmlns="http://www.w3.org/2000/svg">
  <path
    d="M8 5.5C7.44772 5.5 7 5.94772 7 6.5C7 7.05228 7.44772 7.5 8 7.5H10C10.5523 7.5 11 7.05228 11 6.5C11 5.94772 10.5523 5.5 10 5.5H8Z"
    fill="currentColor"/>
  <path
    d="M7 10C7 9.44772 7.44772 9 8 9H12C12.5523 9 13 9.44772 13 10C13 10.5523 12.5523 11 12 11H8C7.44772 11 7 10.5523 7 10Z"
    fill="currentColor"/>
  <path
    d="M8 12.5C7.44772 12.5 7 12.9477 7 13.5C7 14.0523 7.44772 14.5 8 14.5H12C12.5523 14.5 13 14.0523 13 13.5C13 12.9477 12.5523 12.5 12 12.5H8Z"
    fill="currentColor"/>
  <path fill-rule="evenodd" clip-rule="evenodd"
        d="M11.1716 2C11.702 2 12.2107 2.21071 12.5858 2.58579L15.4142 5.41421C15.7893 5.78929 16 6.29799 16 6.82843V15C16 16.6569 14.6569 18 13 18H7C5.34315 18 4 16.6569 4 15V5C4 3.34315 5.34315 2 7 2H11.1716ZM14 15C14 15.5523 13.5523 16 13 16H7C6.44772 16 6 15.5523 6 15V5C6 4.44772 6.44772 4 7 4H10.3431C10.8736 4 11.3823 4.21071 11.7574 4.58579L13.4142 6.24264C13.7893 6.61771 14 7.12642 14 7.65685V15Z"
        fill="currentColor"/>
</svg>
