<svg id="users" width="20" height="20" viewBox="0 0 20 20" fill="none" xmlns="http://www.w3.org/2000/svg">
<path fill-rule="evenodd" clip-rule="evenodd" d="M14.0909 11.2727C13 11.2727 11.3 11.5818 10 12.1818C8.7 11.5727 7 11.2727 5.90909 11.2727C3.93636 11.2727 0 12.2545 0 14.2273V16.7273H20V14.2273C20 12.2545 16.0636 11.2727 14.0909 11.2727ZM10.4545 15.3636H1.36364V14.2273C1.36364 13.7364 3.69091 12.6364 5.90909 12.6364C8.12727 12.6364 10.4545 13.7364 10.4545 14.2273V15.3636ZM18.6364 15.3636H11.8182V14.2273C11.8182 13.8091 11.6364 13.4455 11.3455 13.1182C12.1455 12.8455 13.1273 12.6364 14.0909 12.6364C16.3091 12.6364 18.6364 13.7364 18.6364 14.2273V15.3636ZM5.90909 10.3636C7.66364 10.3636 9.09091 8.93636 9.09091 7.18182C9.09091 5.42727 7.66364 4 5.90909 4C4.15455 4 2.72727 5.42727 2.72727 7.18182C2.72727 8.93636 4.15455 10.3636 5.90909 10.3636ZM5.90909 5.36364C6.90909 5.36364 7.72727 6.18182 7.72727 7.18182C7.72727 8.18182 6.90909 9 5.90909 9C4.90909 9 4.09091 8.18182 4.09091 7.18182C4.09091 6.18182 4.90909 5.36364 5.90909 5.36364ZM14.0909 10.3636C15.8455 10.3636 17.2727 8.93636 17.2727 7.18182C17.2727 5.42727 15.8455 4 14.0909 4C12.3364 4 10.9091 5.42727 10.9091 7.18182C10.9091 8.93636 12.3364 10.3636 14.0909 10.3636ZM14.0909 5.36364C15.0909 5.36364 15.9091 6.18182 15.9091 7.18182C15.9091 8.18182 15.0909 9 14.0909 9C13.0909 9 12.2727 8.18182 12.2727 7.18182C12.2727 6.18182 13.0909 5.36364 14.0909 5.36364Z" fill="currentColor"/>
</svg>

